<svg width="132" height="43" viewBox="0 0 132 43" fill="none" xmlns="http://www.w3.org/2000/svg">
<path d="M69.6137 10.579C69.6137 12.0927 68.4268 13.3115 66.9538 13.3115C65.4808 13.3115 64.2948 12.0927 64.2948 10.579C64.2948 9.06537 65.4404 7.84655 66.9538 7.84655C68.4685 7.88854 69.6137 9.10779 69.6137 10.579ZM58.6488 16.0868V16.7596C58.6488 16.7596 57.381 15.0771 54.6806 15.0771C50.2216 15.0771 46.7434 18.5668 46.7434 23.4014C46.7434 28.1943 50.1807 31.7256 54.6806 31.7256C57.4219 31.7256 58.6488 30.002 58.6488 30.002V30.7164C58.6488 31.0528 58.8949 31.3043 59.2218 31.3043H62.5353V15.4963H59.2218C58.8949 15.4975 58.6488 15.7924 58.6488 16.0868ZM58.6488 26.2182C58.0357 27.1435 56.808 27.9423 55.3354 27.9423C52.7172 27.9423 50.712 26.2607 50.712 23.4014C50.712 20.5425 52.7172 18.8608 55.3354 18.8608C56.7675 18.8608 58.0766 19.7017 58.6488 20.5845V26.2182ZM64.9904 15.4975H68.9177V31.3056H64.9904V15.4975ZM123.659 15.0767C120.959 15.0767 119.69 16.7592 119.69 16.7592V7.88855H115.763V31.3056H119.077C119.404 31.3056 119.649 31.0112 119.649 30.7168V30.0024C119.649 30.0024 120.918 31.726 123.617 31.726C128.077 31.726 131.554 28.1956 131.554 23.4026C131.554 18.6097 128.077 15.0767 123.659 15.0767ZM123.004 27.8999C121.49 27.8999 120.304 27.1019 119.69 26.1762V20.5425C120.304 19.7017 121.613 18.8188 123.004 18.8188C125.622 18.8188 127.627 20.5005 127.627 23.3594C127.627 26.2182 125.623 27.8999 123.004 27.8999ZM113.717 21.9306V31.3476H109.789V22.3925C109.789 19.7865 108.971 18.7348 106.763 18.7348C105.577 18.7348 104.349 19.3657 103.571 20.2909V31.306H99.6442V15.498H102.753C103.08 15.498 103.326 15.7924 103.326 16.0868V16.7596C104.471 15.54 105.985 15.0771 107.498 15.0771C109.217 15.0771 110.649 15.5824 111.794 16.5912C113.185 17.7684 113.717 19.2817 113.717 21.9306ZM90.1102 15.0767C87.4107 15.0767 86.1421 16.7592 86.1421 16.7592V7.88855H82.2147V31.3056H85.5282C85.8555 31.3056 86.1012 31.0112 86.1012 30.7168V30.0024C86.1012 30.0024 87.3698 31.726 90.0694 31.726C94.5292 31.726 98.0066 28.1956 98.0066 23.4026C98.0474 18.6093 94.5701 15.0767 90.1102 15.0767ZM89.4555 27.8999C87.942 27.8999 86.7559 27.1019 86.1421 26.1762V20.5425C86.7559 19.7017 88.065 18.8188 89.4555 18.8188C92.0745 18.8188 94.0788 20.5005 94.0788 23.3594C94.0788 26.2182 92.0745 27.8999 89.4555 27.8999ZM78.8187 15.0767C80.0048 15.0767 80.6187 15.2875 80.6187 15.2875V19.0288C80.6187 19.0288 77.3458 17.8936 75.3006 20.2905V31.3472H71.3724V15.4975H74.6867C75.0141 15.4975 75.2589 15.792 75.2589 16.0864V16.7592C75.9962 15.8759 77.5918 15.0767 78.8187 15.0767ZM38.0297 29.876C37.8253 29.3716 37.6206 28.8251 37.4162 28.3623C37.0884 27.6059 36.7611 26.8907 36.4754 26.2182L36.4345 26.1762C33.6111 19.8696 30.5842 13.4799 27.3926 7.17415L27.27 6.9213C26.9343 6.26715 26.6071 5.60841 26.2886 4.94525C25.8791 4.188 25.4704 3.39001 24.8156 2.63277C23.5065 0.951121 21.6244 0.0258789 19.6201 0.0258789C17.5741 0.0258789 15.7332 0.951126 14.3837 2.54835C13.7698 3.30476 13.3194 4.10359 12.9107 4.86083C12.5914 5.52358 12.2642 6.18231 11.9294 6.83689L11.8063 7.08972C8.65599 13.3955 5.58779 19.7857 2.76481 26.0918L2.72354 26.1754C2.43744 26.8491 2.10965 27.5635 1.78227 28.3195C1.57792 28.7823 1.37356 29.2867 1.16921 29.8331C0.637063 31.3883 0.473162 32.86 0.678335 34.3741C1.12833 37.5274 3.17352 40.175 5.9969 41.3531C7.06078 41.8159 8.16553 42.0259 9.31074 42.0259C9.63812 42.0259 10.0468 41.9839 10.3746 41.9415C11.725 41.7735 13.1159 41.3115 14.4662 40.5127C16.1436 39.5454 17.7392 38.1586 19.5392 36.1406C21.3391 38.1586 22.9756 39.5454 24.6121 40.5127C25.9629 41.3115 27.3533 41.7735 28.7033 41.9415C29.0307 41.9843 29.4402 42.0259 29.7676 42.0259C30.9132 42.0259 32.0584 41.8159 33.081 41.3531C35.9453 40.175 37.9496 37.4854 38.4 34.3741C38.7249 32.9028 38.5614 31.432 38.0297 29.876ZM19.5788 32.062C17.3693 29.2031 15.9372 26.5127 15.4467 24.243C15.2424 23.2758 15.2011 22.435 15.3241 21.6781C15.4055 21.0053 15.6515 20.4165 15.9789 19.9121C16.7562 18.7777 18.0654 18.0624 19.5792 18.0624C21.0935 18.0624 22.4435 18.7352 23.18 19.9121C23.5074 20.4165 23.7526 21.0057 23.8351 21.6781C23.9573 22.4354 23.9165 23.3178 23.7121 24.243C23.2196 26.4707 21.7875 29.1615 19.5788 32.062ZM35.9019 34.0381C35.6158 36.2241 34.1837 38.1166 32.1794 38.9574C31.1977 39.3774 30.1334 39.5038 29.0703 39.3774C28.0477 39.251 27.0243 38.9146 25.9613 38.2846C24.4883 37.4429 23.0157 36.1405 21.297 34.2061C23.997 30.8012 25.6335 27.6895 26.2474 24.9154C26.5339 23.6118 26.5752 22.435 26.4517 21.3413C26.2886 20.2905 25.92 19.3232 25.3474 18.4824C24.0783 16.5899 21.9506 15.4975 19.5784 15.4975C17.2062 15.4975 15.0785 16.6328 13.8103 18.4824C13.2376 19.3232 12.869 20.2905 12.7055 21.3413C12.542 22.435 12.5825 23.6538 12.9099 24.9154C13.5233 27.6895 15.2007 30.8428 17.8598 34.2481C16.1824 36.1821 14.6685 37.4858 13.1955 38.3266C12.1317 38.9574 11.1095 39.2938 10.0869 39.4194C8.98255 39.5458 7.91827 39.3774 6.97741 38.9994C4.97309 38.1586 3.54096 36.2661 3.25486 34.0801C3.13225 33.0293 3.21358 31.9784 3.62311 30.8012C3.74532 30.3804 3.95049 29.9604 4.15484 29.456C4.44135 28.7831 4.76791 28.0679 5.0957 27.3535L5.13698 27.2699C7.95955 21.0053 10.9869 14.6151 14.1372 8.39338L14.2598 8.14054C14.5876 7.51056 14.915 6.83773 15.242 6.2069C15.5694 5.53407 15.9372 4.90324 16.3876 4.35642C17.2467 3.34844 18.3919 2.80118 19.6606 2.80118C20.9292 2.80118 22.0744 3.34844 22.9335 4.35642C23.3839 4.9045 23.7518 5.53533 24.0791 6.2069C24.4069 6.83773 24.7343 7.51056 25.0609 8.14054L25.1839 8.39338C28.2862 14.641 31.2733 20.9483 34.1437 27.3119V27.3539C34.4715 28.0276 34.7576 28.7836 35.0849 29.4572C35.2893 29.9608 35.4941 30.3808 35.6167 30.8016C35.9432 31.8936 36.0658 32.9453 35.9019 34.0381Z" fill="#2D2D2D"/>
</svg>
