<svg width="52" height="52" viewBox="0 0 52 52" fill="none" xmlns="http://www.w3.org/2000/svg">
<g style="mix-blend-mode:multiply">
<rect x="0.165771" y="0.58728" width="51.0875" height="51.0875" rx="12.5625" fill="#CEE3F9"/>
</g>
<path d="M30.7346 16.0812H20.6846C19.2944 16.0812 18.1721 17.1951 18.1721 18.5686V27.7057C18.1721 29.0792 19.2944 30.1931 20.6846 30.1931H21.3211C21.9911 30.1931 22.6276 30.4527 23.0966 30.9217L24.5287 32.3371C25.182 32.9819 26.2456 32.9819 26.8989 32.3371L28.331 30.9217C28.8 30.4527 29.4449 30.1931 30.1065 30.1931H30.7346C32.1249 30.1931 33.2471 29.0792 33.2471 27.7057V18.5686C33.2471 17.1951 32.1249 16.0812 30.7346 16.0812ZM24.3529 25.3021C24.6962 25.3021 24.981 25.5868 24.981 25.9302C24.981 26.2736 24.6962 26.5583 24.3529 26.5583H22.1084C21.7399 26.5583 21.3965 26.3824 21.1787 26.0809C20.9694 25.7962 20.9191 25.4444 21.0196 25.1094C21.3127 24.2133 22.033 23.7276 22.6695 23.2921C23.3395 22.8398 23.7164 22.5551 23.7164 22.0693C23.7164 21.6338 23.3646 21.2821 22.9291 21.2821C22.4936 21.2821 22.1502 21.6422 22.1502 22.0777C22.1502 22.4211 21.8655 22.7058 21.5221 22.7058C21.1787 22.7058 20.894 22.4211 20.894 22.0777C20.894 20.9554 21.8069 20.0342 22.9375 20.0342C24.0681 20.0342 24.981 20.9471 24.981 22.0777C24.981 23.2586 24.0932 23.8616 23.3814 24.3473C22.9375 24.6488 22.5187 24.9336 22.3094 25.3104H24.3529V25.3021ZM29.8971 25.3607H29.7212V25.9386C29.7212 26.2819 29.4365 26.5667 29.0931 26.5667C28.7497 26.5667 28.465 26.2819 28.465 25.9386V25.3607H26.8235C26.8235 25.3607 26.8235 25.3607 26.8151 25.3607C26.4047 25.3607 26.0279 25.1429 25.8185 24.7912C25.6091 24.4311 25.6091 23.9872 25.8185 23.6354C26.388 22.6556 27.0496 21.5417 27.6526 20.5702C27.9206 20.1431 28.4315 19.9504 28.9089 20.0844C29.3862 20.2268 29.7212 20.6623 29.7129 21.1648V24.1128H29.8971C30.2405 24.1128 30.5252 24.3976 30.5252 24.7409C30.5252 25.0843 30.2405 25.3607 29.8971 25.3607Z" fill="#1F8FFF"/>
<path d="M28.4651 24.1043V21.6421C27.971 22.4461 27.4601 23.3087 26.9995 24.096H28.4651V24.1043Z" fill="#1F8FFF"/>
</svg>
