<svg width="49" height="49" viewBox="0 0 49 49" fill="none" xmlns="http://www.w3.org/2000/svg">
<g style="mix-blend-mode:multiply">
<rect x="0.162598" y="0.424561" width="48" height="48" rx="15" fill="#FEE5A4"/>
</g>
<path d="M17.7111 31.5064C16.5308 31.5064 15.5078 30.4835 15.5078 29.3031V26.4703C15.5078 25.2113 16.5308 24.2671 17.7111 24.2671C18.9701 24.2671 19.9144 25.29 19.9144 26.4703V29.3031C19.9144 30.4835 18.9701 31.5064 17.7111 31.5064Z" fill="#DD9F00"/>
<path d="M24.1632 31.5064C22.9042 31.5064 21.96 30.4835 21.96 29.3031V22.1425C21.96 20.8835 22.9829 19.9392 24.1632 19.9392C25.4223 19.9392 26.3665 20.9621 26.3665 22.1425V29.3031C26.3665 30.4835 25.4223 31.5064 24.1632 31.5064Z" fill="#DD9F00"/>
<path d="M30.6159 31.5064C29.3569 31.5064 28.4126 30.4834 28.4126 29.3031V16.3982C28.4126 15.1392 29.4355 14.1949 30.6159 14.1949C31.7962 14.1949 32.8192 15.2179 32.8192 16.3982V29.3031C32.8192 30.4834 31.7962 31.5064 30.6159 31.5064Z" fill="#DD9F00"/>
</svg>
