<svg width="52" height="53" viewBox="0 0 52 53" fill="none" xmlns="http://www.w3.org/2000/svg">
<g style="mix-blend-mode:multiply">
<rect x="0.165771" y="0.962524" width="51.0875" height="51.0875" rx="12.5625" fill="#DFF7EB"/>
</g>
<path d="M29.8972 16.4563H21.5222C19.2107 16.4563 17.3347 18.3239 17.3347 20.627V25.6353V26.4728C17.3347 28.7759 19.2107 30.6435 21.5222 30.6435H22.7785C23.0046 30.6435 23.3061 30.7943 23.4485 30.9785L24.7047 32.6452C25.2575 33.3822 26.162 33.3822 26.7147 32.6452L27.971 30.9785C28.1301 30.7692 28.3813 30.6435 28.641 30.6435H29.8972C32.2087 30.6435 34.0847 28.7759 34.0847 26.4728V20.627C34.0847 18.3239 32.2087 16.4563 29.8972 16.4563ZM26.5472 26.2969H21.5222C21.1788 26.2969 20.8941 26.0122 20.8941 25.6688C20.8941 25.3254 21.1788 25.0407 21.5222 25.0407H26.5472C26.8906 25.0407 27.1753 25.3254 27.1753 25.6688C27.1753 26.0122 26.8906 26.2969 26.5472 26.2969ZM29.8972 22.1094H21.5222C21.1788 22.1094 20.8941 21.8247 20.8941 21.4813C20.8941 21.1379 21.1788 20.8532 21.5222 20.8532H29.8972C30.2406 20.8532 30.5253 21.1379 30.5253 21.4813C30.5253 21.8247 30.2406 22.1094 29.8972 22.1094Z" fill="#47D18C"/>
</svg>
