<svg width="41" height="41" viewBox="0 0 41 41" fill="none" xmlns="http://www.w3.org/2000/svg">
<path d="M20.1582 10.1758C14.6582 10.1758 10.1582 14.6658 10.1582 20.1958C10.1582 25.1958 13.8182 29.3458 18.5982 30.0958V23.0958H16.0582V20.1958H18.5982V17.9858C18.5982 15.4758 20.0882 14.0958 22.3782 14.0958C23.4682 14.0958 24.6082 14.2858 24.6082 14.2858V16.7558H23.3482C22.1082 16.7558 21.7182 17.5258 21.7182 18.3158V20.1958H24.4982L24.0482 23.0958H21.7182V30.0958C24.0746 29.7236 26.2204 28.5213 27.7681 26.7058C29.3159 24.8904 30.1636 22.5814 30.1582 20.1958C30.1582 14.6658 25.6582 10.1758 20.1582 10.1758Z" fill="#242D3C"/>
</svg>
