<svg width="49" height="49" viewBox="0 0 49 49" fill="none" xmlns="http://www.w3.org/2000/svg">
<g style="mix-blend-mode:multiply">
<rect x="0.986328" y="0.966064" width="48" height="48" rx="15" fill="#EAEDB6"/>
</g>
<path d="M32.72 22.9577C32.5051 22.243 31.8603 21.6713 31.1438 21.5998L28.1346 21.171L26.7733 18.3122C26.415 17.526 25.7702 17.0972 24.9821 17.0972C24.1939 17.0972 23.5491 17.526 23.1909 18.2407L21.8295 21.0995L18.8203 21.5998C18.1038 21.7428 17.459 22.243 17.2441 22.9577C16.9575 23.7439 17.1724 24.5301 17.7456 25.1018L19.9667 27.3174L19.4652 30.462C19.3219 31.2482 19.6801 32.0344 20.3249 32.4632C20.6832 32.6776 21.0414 32.8205 21.4713 32.8205C21.8295 32.8205 22.1161 32.7491 22.4027 32.6061L25.1254 31.1053L27.848 32.6061C28.4928 32.9635 29.2809 32.892 29.9258 32.4632C30.5706 32.0344 30.9288 31.2482 30.7855 30.462L30.284 27.3174L32.5051 25.1018C32.7917 24.5301 33.0066 23.6724 32.72 22.9577Z" fill="#99A129"/>
</svg>
