<svg width="41" height="41" viewBox="0 0 41 41" fill="none" xmlns="http://www.w3.org/2000/svg">
<path d="M30.6182 14.1357C29.8482 14.4857 29.0182 14.7157 28.1582 14.8257C29.0382 14.2957 29.7182 13.4557 30.0382 12.4457C29.2082 12.9457 28.2882 13.2957 27.3182 13.4957C26.5282 12.6357 25.4182 12.1357 24.1582 12.1357C21.8082 12.1357 19.8882 14.0557 19.8882 16.4257C19.8882 16.7657 19.9282 17.0957 19.9982 17.4057C16.4382 17.2257 13.2682 15.5157 11.1582 12.9257C10.7882 13.5557 10.5782 14.2957 10.5782 15.0757C10.5782 16.5657 11.3282 17.8857 12.4882 18.6357C11.7782 18.6357 11.1182 18.4357 10.5382 18.1357V18.1657C10.5382 20.2457 12.0182 21.9857 13.9782 22.3757C13.3489 22.548 12.6883 22.5719 12.0482 22.4457C12.3198 23.2982 12.8517 24.0442 13.5692 24.5787C14.2867 25.1132 15.1537 25.4094 16.0482 25.4257C14.5318 26.6262 12.6522 27.2751 10.7182 27.2657C10.3782 27.2657 10.0382 27.2457 9.6982 27.2057C11.5982 28.4257 13.8582 29.1357 16.2782 29.1357C24.1582 29.1357 28.4882 22.5957 28.4882 16.9257C28.4882 16.7357 28.4882 16.5557 28.4782 16.3657C29.3182 15.7657 30.0382 15.0057 30.6182 14.1357Z" fill="#242D3C"/>
</svg>
