<svg width="49" height="49" viewBox="0 0 49 49" fill="none" xmlns="http://www.w3.org/2000/svg">
<g style="mix-blend-mode:multiply">
<rect x="0.162598" y="0.966064" width="48" height="48" rx="15" fill="#BBDCFD"/>
</g>
<path d="M23.638 17.6218H16.1888C14.1954 17.6218 12.6216 19.1956 12.6216 21.189V28.3234C12.6216 30.3169 14.1954 31.8907 16.1888 31.8907H23.638C25.6314 31.8907 27.2052 30.3169 27.2052 28.3234V21.189C27.3101 19.1956 25.6314 17.6218 23.638 17.6218Z" fill="#1F8FFF"/>
<path d="M34.6543 19.0907C33.9199 18.671 32.9757 18.671 32.2412 19.0907L32.1363 19.1956L29.4084 21.0841C29.0937 21.2939 28.9888 21.6087 28.9888 21.9234V27.7989C28.9888 28.1136 29.1986 28.4284 29.4084 28.6382L32.0314 30.5267L32.1363 30.6316C32.4511 30.8415 32.8707 30.9464 33.2904 30.9464C33.7101 30.9464 34.2347 30.8415 34.5494 30.6316C35.1789 30.212 35.5986 29.4775 35.5986 28.7431V20.9792C35.7035 20.2448 35.2838 19.5103 34.6543 19.0907Z" fill="#1F8FFF"/>
</svg>
