<svg width="49" height="49" viewBox="0 0 49 49" fill="none" xmlns="http://www.w3.org/2000/svg">
<g style="mix-blend-mode:multiply">
<rect x="0.162598" y="0.592102" width="48" height="48" rx="15" fill="#ACDBC4"/>
</g>
<path d="M17.868 20.2292C17.868 20.3071 17.868 20.4629 17.868 20.5408C16.4516 21.3978 15.5073 22.8781 15.5073 24.5921C15.5073 26.3061 16.4516 27.7864 17.868 28.6434C17.868 28.7992 17.868 28.8771 17.868 29.0329C17.868 29.812 18.104 30.5132 18.5762 31.0586C19.2057 31.9156 20.2286 32.4609 21.409 32.4609C21.7237 32.4609 21.9598 32.4609 22.2745 32.383C22.904 32.2272 23.3762 31.6039 23.3762 30.9028V29.0329V20.2292V18.2814C23.3762 17.5802 22.904 16.957 22.2745 16.8011C21.9598 16.7232 21.645 16.7232 21.3303 16.7232C19.4418 16.7232 17.868 18.2814 17.868 20.2292Z" fill="#478F6C"/>
<path d="M32.8186 24.7495C32.8186 23.0183 31.8743 21.5232 30.4579 20.6577C30.4579 20.579 30.4579 20.4216 30.4579 20.2642C30.4579 18.297 28.8841 16.7232 26.9169 16.7232C26.6022 16.7232 26.3661 16.7232 26.0513 16.8019C25.3431 16.9593 24.9497 17.5888 24.9497 18.297V20.1855V28.9986V30.8872C24.9497 31.5954 25.4218 32.2249 26.0513 32.3823C26.2874 32.4609 26.6022 32.4609 26.9169 32.4609C28.8841 32.4609 30.4579 30.8872 30.4579 28.92C30.4579 28.8413 30.4579 28.6839 30.4579 28.6052C31.953 27.9757 32.8186 26.4806 32.8186 24.7495Z" fill="#478F6C"/>
</svg>
