<svg width="52" height="52" viewBox="0 0 52 52" fill="none" xmlns="http://www.w3.org/2000/svg">
<g style="mix-blend-mode:multiply">
<rect x="0.165771" y="0.21228" width="51.0875" height="51.0875" rx="12.5625" fill="#FEE5A4"/>
</g>
<path d="M32.4096 22.0293C32.0662 22.0293 31.7815 21.7446 31.7815 21.4012V18.0093H28.3896C28.0462 18.0093 27.7615 17.7246 27.7615 17.3812C27.7615 17.0378 28.0462 16.7531 28.3896 16.7531H32.4096C32.753 16.7531 33.0377 17.0378 33.0377 17.3812V21.4012C33.0377 21.7446 32.753 22.0293 32.4096 22.0293Z" fill="#DD9F00"/>
<path d="M24.9141 26.5518L23.3647 28.1012C23.0381 28.4278 22.5188 28.4278 22.1838 28.1096C22.0917 28.0174 21.9996 27.9337 21.9075 27.8416C21.0448 26.9706 20.266 26.0577 19.5708 25.1029C18.8841 24.1482 18.3313 23.1934 17.9293 22.2471C17.5357 21.2923 17.3347 20.3794 17.3347 19.5084C17.3347 18.9389 17.4352 18.3946 17.6362 17.8921C17.8372 17.3812 18.1555 16.9122 18.5993 16.4934C19.1353 15.9658 19.7216 15.7062 20.3413 15.7062C20.5758 15.7062 20.8103 15.7564 21.0197 15.8569C21.2375 15.9574 21.4301 16.1082 21.5808 16.3259L23.5238 19.0646C23.6746 19.2739 23.7835 19.4666 23.8588 19.6508C23.9342 19.8267 23.9761 20.0026 23.9761 20.1617C23.9761 20.3627 23.9175 20.5637 23.8002 20.7563C23.6913 20.9489 23.5322 21.1499 23.3312 21.3509L22.6947 22.0126C22.6026 22.1047 22.5607 22.2136 22.5607 22.3476C22.5607 22.4146 22.5691 22.4732 22.5858 22.5402C22.611 22.6072 22.6361 22.6574 22.6528 22.7077C22.8036 22.9841 23.0632 23.3442 23.4317 23.7797C23.8086 24.2152 24.2106 24.6591 24.6461 25.1029C24.7298 25.1867 24.822 25.2704 24.9057 25.3542C25.2407 25.6808 25.2491 26.2168 24.9141 26.5518Z" fill="#DD9F00"/>
<path d="M34.0596 29.3825C34.0596 29.617 34.0177 29.8599 33.934 30.0944C33.9088 30.1614 33.8837 30.2284 33.8502 30.2954C33.7078 30.5969 33.5236 30.8817 33.2807 31.1497C32.8703 31.6019 32.4181 31.9285 31.9072 32.1379C31.8988 32.1379 31.8905 32.1463 31.8821 32.1463C31.388 32.3473 30.852 32.4562 30.2741 32.4562C29.4198 32.4562 28.507 32.2552 27.5438 31.8448C26.5807 31.4344 25.6176 30.8817 24.6628 30.1865C24.3362 29.9437 24.0096 29.7008 23.6997 29.4412L26.4383 26.7025C26.6728 26.8784 26.8822 27.0124 27.0581 27.1045C27.1 27.1213 27.1502 27.1464 27.2088 27.1715C27.2758 27.1967 27.3428 27.205 27.4182 27.205C27.5606 27.205 27.6695 27.1548 27.7616 27.0627L28.3981 26.4345C28.6075 26.2252 28.8085 26.066 29.0011 25.9655C29.1937 25.8483 29.3863 25.7897 29.5957 25.7897C29.7548 25.7897 29.9223 25.8232 30.1066 25.8985C30.2908 25.9739 30.4835 26.0828 30.6928 26.2252L33.465 28.1933C33.6827 28.344 33.8335 28.5199 33.9256 28.7293C34.0093 28.9387 34.0596 29.148 34.0596 29.3825Z" fill="#DD9F00"/>
</svg>
